<svg width="800" height="1000" xmlns="http://www.w3.org/2000/svg">
  <!-- Gradient definitions -->
  <defs>
    <linearGradient id="grad1" x1="0%" y1="0%" x2="100%" y2="100%">
      <stop offset="0%" style="stop-color:#8b5cf6;stop-opacity:1" />
      <stop offset="50%" style="stop-color:#ec4899;stop-opacity:1" />
      <stop offset="100%" style="stop-color:#f59e0b;stop-opacity:1" />
    </linearGradient>
    <linearGradient id="grad2" x1="0%" y1="0%" x2="0%" y2="100%">
      <stop offset="0%" style="stop-color:#6366f1;stop-opacity:1" />
      <stop offset="100%" style="stop-color:#8b5cf6;stop-opacity:1" />
    </linearGradient>
  </defs>
  
  <!-- T-shirt mockup background -->
  <rect width="800" height="1000" fill="#ffffff"/>
  
  <!-- Front Design -->
  <g id="front-design">
    <!-- Large gradient circle -->
    <circle cx="400" cy="300" r="120" fill="url(#grad1)" opacity="0.3"/>
    <circle cx="400" cy="300" r="90" fill="url(#grad1)"/>
    
    <!-- App icon elements -->
    <circle cx="380" cy="280" r="8" fill="white"/>
    <circle cx="420" cy="280" r="8" fill="white"/>
    <path d="M 370 310 Q 400 340 430 310" stroke="white" stroke-width="6" fill="none" stroke-linecap="round"/>
    
    <!-- App Name with gradient -->
    <text x="400" y="480" font-family="Arial, sans-serif" font-size="56" font-weight="bold" fill="url(#grad2)" text-anchor="middle">
      YOUR APP
    </text>
    
    <!-- Feature icons -->
    <g transform="translate(200, 550)">
      <circle cx="0" cy="0" r="25" fill="url(#grad1)" opacity="0.3"/>
      <text x="0" y="8" font-size="24" text-anchor="middle">📸</text>
    </g>
    <g transform="translate(300, 550)">
      <circle cx="0" cy="0" r="25" fill="url(#grad1)" opacity="0.3"/>
      <text x="0" y="8" font-size="24" text-anchor="middle">🎬</text>
    </g>
    <g transform="translate(400, 550)">
      <circle cx="0" cy="0" r="25" fill="url(#grad1)" opacity="0.3"/>
      <text x="0" y="8" font-size="24" text-anchor="middle">📖</text>
    </g>
    <g transform="translate(500, 550)">
      <circle cx="0" cy="0" r="25" fill="url(#grad1)" opacity="0.3"/>
      <text x="0" y="8" font-size="24" text-anchor="middle">💬</text>
    </g>
    <g transform="translate(600, 550)">
      <circle cx="0" cy="0" r="25" fill="url(#grad1)" opacity="0.3"/>
      <text x="0" y="8" font-size="24" text-anchor="middle">🔔</text>
    </g>
  </g>
  
  <!-- Back Design Preview -->
  <g id="back-design" transform="translate(0, 650)">
    <text x="400" y="100" font-family="Arial, sans-serif" font-size="32" font-weight="bold" fill="url(#grad1)" text-anchor="middle">
      All in One
    </text>
  </g>
</svg>
